<svg width="156" height="27" viewBox="0 0 156 27" fill="none" xmlns="http://www.w3.org/2000/svg">
<path d="M10.168 16.1L6.784 19.628V26H0.988V0.799998H6.784V12.572L17.944 0.799998H24.424L13.984 12.032L25.036 26H18.232L10.168 16.1ZM44.6284 21.32V26H25.1164V0.799998H44.1604V5.48H30.9124V10.952H42.6124V15.488H30.9124V21.32H44.6284ZM58.5987 17.072V26H52.7667V17L43.0107 0.799998H49.2027L55.9347 11.996L62.6667 0.799998H68.3907L58.5987 17.072ZM78.9727 0.799998C81.2047 0.799998 83.1367 1.172 84.7687 1.916C86.4247 2.66 87.6967 3.716 88.5847 5.084C89.4727 6.452 89.9167 8.072 89.9167 9.944C89.9167 11.792 89.4727 13.412 88.5847 14.804C87.6967 16.172 86.4247 17.228 84.7687 17.972C83.1367 18.692 81.2047 19.052 78.9727 19.052H73.8967V26H68.0647V0.799998H78.9727ZM78.6487 14.3C80.4007 14.3 81.7327 13.928 82.6447 13.184C83.5567 12.416 84.0127 11.336 84.0127 9.944C84.0127 8.528 83.5567 7.448 82.6447 6.704C81.7327 5.936 80.4007 5.552 78.6487 5.552H73.8967V14.3H78.6487ZM91.5603 0.799998H97.3923V21.248H110.028V26H91.5603V0.799998ZM121.647 26.432C118.047 26.432 115.239 25.436 113.223 23.444C111.231 21.452 110.235 18.608 110.235 14.912V0.799998H116.067V14.696C116.067 19.208 117.939 21.464 121.683 21.464C123.507 21.464 124.899 20.924 125.859 19.844C126.819 18.74 127.299 17.024 127.299 14.696V0.799998H133.059V14.912C133.059 18.608 132.051 21.452 130.035 23.444C128.043 25.436 125.247 26.432 121.647 26.432ZM144.582 26.432C142.59 26.432 140.658 26.168 138.786 25.64C136.938 25.088 135.45 24.38 134.322 23.516L136.302 19.124C137.382 19.916 138.666 20.552 140.154 21.032C141.642 21.512 143.13 21.752 144.618 21.752C146.274 21.752 147.498 21.512 148.29 21.032C149.082 20.528 149.478 19.868 149.478 19.052C149.478 18.452 149.238 17.96 148.758 17.576C148.302 17.168 147.702 16.844 146.958 16.604C146.238 16.364 145.254 16.1 144.006 15.812C142.086 15.356 140.514 14.9 139.29 14.444C138.066 13.988 137.01 13.256 136.122 12.248C135.258 11.24 134.826 9.896 134.826 8.216C134.826 6.752 135.222 5.432 136.014 4.256C136.806 3.056 137.994 2.108 139.578 1.412C141.186 0.715999 143.142 0.368 145.446 0.368C147.054 0.368 148.626 0.559999 150.162 0.943999C151.698 1.328 153.042 1.88 154.194 2.6L152.394 7.028C150.066 5.708 147.738 5.048 145.41 5.048C143.778 5.048 142.566 5.312 141.774 5.84C141.006 6.368 140.622 7.064 140.622 7.928C140.622 8.792 141.066 9.44 141.954 9.872C142.866 10.28 144.246 10.688 146.094 11.096C148.014 11.552 149.586 12.008 150.81 12.464C152.034 12.92 153.078 13.64 153.942 14.624C154.83 15.608 155.274 16.94 155.274 18.62C155.274 20.06 154.866 21.38 154.05 22.58C153.258 23.756 152.058 24.692 150.45 25.388C148.842 26.084 146.886 26.432 144.582 26.432Z" fill="#262626"/>
</svg>
