<svg width="161" height="27" viewBox="0 0 161 27" fill="none" xmlns="http://www.w3.org/2000/svg">
<path d="M9.06 15.452L5.064 19.556V26H0.384V0.799998H5.064V13.724L17.52 0.799998H22.776L12.192 12.068L23.424 26H17.952L9.06 15.452ZM44.4306 22.076V26H25.5306V0.799998H43.9266V4.724H30.2106V11.276H42.3786V15.128H30.2106V22.076H44.4306ZM59.1585 17.108V26H54.4785V17.18L44.5785 0.799998H49.5825L56.9625 13.076L64.4145 0.799998H69.0225L59.1585 17.108ZM81.0237 0.799998C83.2077 0.799998 85.1037 1.16 86.7117 1.88C88.3437 2.6 89.5917 3.632 90.4557 4.976C91.3197 6.32 91.7517 7.916 91.7517 9.764C91.7517 11.588 91.3197 13.184 90.4557 14.552C89.5917 15.896 88.3437 16.928 86.7117 17.648C85.1037 18.368 83.2077 18.728 81.0237 18.728H75.3357V26H70.6557V0.799998H81.0237ZM80.8077 14.768C82.8477 14.768 84.3957 14.336 85.4517 13.472C86.5077 12.608 87.0357 11.372 87.0357 9.764C87.0357 8.156 86.5077 6.92 85.4517 6.056C84.3957 5.192 82.8477 4.76 80.8077 4.76H75.3357V14.768H80.8077ZM95.3453 0.799998H100.025V22.04H113.201V26H95.3453V0.799998ZM126.3 26.36C122.82 26.36 120.108 25.388 118.164 23.444C116.22 21.476 115.248 18.668 115.248 15.02V0.799998H119.928V14.84C119.928 19.784 122.064 22.256 126.336 22.256C130.584 22.256 132.708 19.784 132.708 14.84V0.799998H137.316V15.02C137.316 18.668 136.344 21.476 134.4 23.444C132.48 25.388 129.78 26.36 126.3 26.36ZM150.603 26.36C148.659 26.36 146.775 26.084 144.951 25.532C143.151 24.98 141.723 24.248 140.667 23.336L142.287 19.7C143.319 20.516 144.579 21.188 146.067 21.716C147.579 22.22 149.091 22.472 150.603 22.472C152.475 22.472 153.867 22.172 154.779 21.572C155.715 20.972 156.183 20.18 156.183 19.196C156.183 18.476 155.919 17.888 155.391 17.432C154.887 16.952 154.239 16.58 153.447 16.316C152.655 16.052 151.575 15.752 150.207 15.416C148.287 14.96 146.727 14.504 145.527 14.048C144.351 13.592 143.331 12.884 142.467 11.924C141.627 10.94 141.207 9.62 141.207 7.964C141.207 6.572 141.579 5.312 142.323 4.184C143.091 3.032 144.231 2.12 145.743 1.448C147.279 0.775999 149.151 0.439999 151.359 0.439999C152.895 0.439999 154.407 0.631999 155.895 1.016C157.383 1.4 158.667 1.952 159.747 2.672L158.271 6.308C157.167 5.66 156.015 5.168 154.815 4.832C153.615 4.496 152.451 4.328 151.323 4.328C149.475 4.328 148.095 4.64 147.183 5.264C146.295 5.888 145.851 6.716 145.851 7.748C145.851 8.468 146.103 9.056 146.607 9.512C147.135 9.968 147.795 10.328 148.587 10.592C149.379 10.856 150.459 11.156 151.827 11.492C153.699 11.924 155.235 12.38 156.435 12.86C157.635 13.316 158.655 14.024 159.495 14.984C160.359 15.944 160.791 17.24 160.791 18.872C160.791 20.264 160.407 21.524 159.639 22.652C158.895 23.78 157.755 24.68 156.219 25.352C154.683 26.024 152.811 26.36 150.603 26.36Z" fill="#262626"/>
</svg>
