<svg width="104" height="19" viewBox="0 0 104 19" fill="none" xmlns="http://www.w3.org/2000/svg">
<path d="M7.112 11.4L4.856 13.752V18H0.992V1.2H4.856V9.048L12.296 1.2H16.616L9.656 8.688L17.024 18H12.488L7.112 11.4ZM30.0856 14.88V18H17.0776V1.2H29.7736V4.32H20.9416V7.968H28.7416V10.992H20.9416V14.88H30.0856ZM39.3991 12.048V18H35.5111V12L29.0071 1.2H33.1351L37.6231 8.664L42.1111 1.2H45.9271L39.3991 12.048ZM52.9818 1.2C54.4698 1.2 55.7578 1.448 56.8458 1.944C57.9498 2.44 58.7978 3.144 59.3898 4.056C59.9818 4.968 60.2778 6.048 60.2778 7.296C60.2778 8.528 59.9818 9.608 59.3898 10.536C58.7978 11.448 57.9498 12.152 56.8458 12.648C55.7578 13.128 54.4698 13.368 52.9818 13.368H49.5978V18H45.7098V1.2H52.9818ZM52.7658 10.2C53.9338 10.2 54.8218 9.952 55.4298 9.456C56.0378 8.944 56.3418 8.224 56.3418 7.296C56.3418 6.352 56.0378 5.632 55.4298 5.136C54.8218 4.624 53.9338 4.368 52.7658 4.368H49.5978V10.2H52.7658ZM61.3736 1.2H65.2616V14.832H73.6856V18H61.3736V1.2ZM81.431 18.288C79.031 18.288 77.159 17.624 75.815 16.296C74.487 14.968 73.823 13.072 73.823 10.608V1.2H77.711V10.464C77.711 13.472 78.959 14.976 81.455 14.976C82.671 14.976 83.599 14.616 84.239 13.896C84.879 13.16 85.199 12.016 85.199 10.464V1.2H89.039V10.608C89.039 13.072 88.367 14.968 87.023 16.296C85.695 17.624 83.831 18.288 81.431 18.288ZM96.7211 18.288C95.3931 18.288 94.1051 18.112 92.8571 17.76C91.6251 17.392 90.6331 16.92 89.8811 16.344L91.2011 13.416C91.9211 13.944 92.7771 14.368 93.7691 14.688C94.7611 15.008 95.7531 15.168 96.7451 15.168C97.8491 15.168 98.6651 15.008 99.1931 14.688C99.7211 14.352 99.9851 13.912 99.9851 13.368C99.9851 12.968 99.8251 12.64 99.5051 12.384C99.2011 12.112 98.8011 11.896 98.3051 11.736C97.8251 11.576 97.1691 11.4 96.3371 11.208C95.0571 10.904 94.0091 10.6 93.1931 10.296C92.3771 9.992 91.6731 9.504 91.0811 8.832C90.5051 8.16 90.2171 7.264 90.2171 6.144C90.2171 5.168 90.4811 4.288 91.0091 3.504C91.5371 2.704 92.3291 2.072 93.3851 1.608C94.4571 1.144 95.7611 0.912 97.2971 0.912C98.3691 0.912 99.4171 1.04 100.441 1.296C101.465 1.552 102.361 1.92 103.129 2.4L101.929 5.352C100.377 4.472 98.8251 4.032 97.2731 4.032C96.1851 4.032 95.3771 4.208 94.8491 4.56C94.3371 4.912 94.0811 5.376 94.0811 5.952C94.0811 6.528 94.3771 6.96 94.9691 7.248C95.5771 7.52 96.4971 7.792 97.7291 8.064C99.0091 8.368 100.057 8.672 100.873 8.976C101.689 9.28 102.385 9.76 102.961 10.416C103.553 11.072 103.849 11.96 103.849 13.08C103.849 14.04 103.577 14.92 103.033 15.72C102.505 16.504 101.705 17.128 100.633 17.592C99.5611 18.056 98.2571 18.288 96.7211 18.288Z" fill="black"/>
</svg>
