<svg width="215" height="36" viewBox="0 0 215 36" fill="none" xmlns="http://www.w3.org/2000/svg">
<path d="M12.08 20.936L6.752 26.408V35H0.512V1.4H6.752V18.632L23.36 1.4H30.368L16.256 16.424L31.232 35H23.936L12.08 20.936ZM59.2408 29.768V35H34.0408V1.4H58.5688V6.632H40.2808V15.368H56.5048V20.504H40.2808V29.768H59.2408ZM78.878 23.144V35H72.638V23.24L59.438 1.4H66.11L75.95 17.768L85.886 1.4H92.03L78.878 23.144ZM108.032 1.4C110.944 1.4 113.472 1.88 115.616 2.84C117.792 3.8 119.456 5.176 120.608 6.968C121.76 8.76 122.336 10.888 122.336 13.352C122.336 15.784 121.76 17.912 120.608 19.736C119.456 21.528 117.792 22.904 115.616 23.864C113.472 24.824 110.944 25.304 108.032 25.304H100.448V35H94.2076V1.4H108.032ZM107.744 20.024C110.464 20.024 112.528 19.448 113.936 18.296C115.344 17.144 116.048 15.496 116.048 13.352C116.048 11.208 115.344 9.56 113.936 8.408C112.528 7.256 110.464 6.68 107.744 6.68H100.448V20.024H107.744ZM127.127 1.4H133.367V29.72H150.935V35H127.127V1.4ZM168.401 35.48C163.761 35.48 160.145 34.184 157.553 31.592C154.961 28.968 153.665 25.224 153.665 20.36V1.4H159.905V20.12C159.905 26.712 162.753 30.008 168.449 30.008C174.113 30.008 176.945 26.712 176.945 20.12V1.4H183.089V20.36C183.089 25.224 181.793 28.968 179.201 31.592C176.641 34.184 173.041 35.48 168.401 35.48ZM200.804 35.48C198.212 35.48 195.7 35.112 193.268 34.376C190.868 33.64 188.964 32.664 187.556 31.448L189.716 26.6C191.092 27.688 192.772 28.584 194.756 29.288C196.772 29.96 198.788 30.296 200.804 30.296C203.3 30.296 205.156 29.896 206.372 29.096C207.62 28.296 208.244 27.24 208.244 25.928C208.244 24.968 207.892 24.184 207.188 23.576C206.516 22.936 205.652 22.44 204.596 22.088C203.54 21.736 202.1 21.336 200.276 20.888C197.716 20.28 195.636 19.672 194.036 19.064C192.468 18.456 191.108 17.512 189.956 16.232C188.836 14.92 188.276 13.16 188.276 10.952C188.276 9.096 188.772 7.416 189.764 5.912C190.788 4.376 192.308 3.16 194.324 2.264C196.372 1.368 198.868 0.919998 201.812 0.919998C203.86 0.919998 205.876 1.176 207.86 1.688C209.844 2.2 211.556 2.936 212.996 3.896L211.028 8.744C209.556 7.88 208.02 7.224 206.42 6.776C204.82 6.328 203.268 6.104 201.764 6.104C199.3 6.104 197.46 6.52 196.244 7.352C195.06 8.184 194.468 9.288 194.468 10.664C194.468 11.624 194.804 12.408 195.476 13.016C196.18 13.624 197.06 14.104 198.116 14.456C199.172 14.808 200.612 15.208 202.436 15.656C204.932 16.232 206.98 16.84 208.58 17.48C210.18 18.088 211.54 19.032 212.66 20.312C213.812 21.592 214.388 23.32 214.388 25.496C214.388 27.352 213.876 29.032 212.852 30.536C211.86 32.04 210.34 33.24 208.292 34.136C206.244 35.032 203.748 35.48 200.804 35.48Z" fill="#262626"/>
</svg>
