<svg width="108" height="19" viewBox="0 0 108 19" fill="none" xmlns="http://www.w3.org/2000/svg">
<path d="M6.04 10.968L3.376 13.704V18H0.256V1.2H3.376V9.816L11.68 1.2H15.184L8.128 8.712L15.616 18H11.968L6.04 10.968ZM29.6204 15.384V18H17.0204V1.2H29.2844V3.816H20.1404V8.184H28.2524V10.752H20.1404V15.384H29.6204ZM39.439 12.072V18H36.319V12.12L29.719 1.2H33.055L37.975 9.384L42.943 1.2H46.015L39.439 12.072ZM54.0158 1.2C55.4718 1.2 56.7358 1.44 57.8078 1.92C58.8958 2.4 59.7278 3.088 60.3038 3.984C60.8798 4.88 61.1678 5.944 61.1678 7.176C61.1678 8.392 60.8798 9.456 60.3038 10.368C59.7278 11.264 58.8958 11.952 57.8078 12.432C56.7358 12.912 55.4718 13.152 54.0158 13.152H50.2238V18H47.1038V1.2H54.0158ZM53.8718 10.512C55.2318 10.512 56.2638 10.224 56.9678 9.648C57.6718 9.072 58.0238 8.248 58.0238 7.176C58.0238 6.104 57.6718 5.28 56.9678 4.704C56.2638 4.128 55.2318 3.84 53.8718 3.84H50.2238V10.512H53.8718ZM63.5635 1.2H66.6835V15.36H75.4675V18H63.5635V1.2ZM84.2003 18.24C81.8803 18.24 80.0723 17.592 78.7763 16.296C77.4803 14.984 76.8323 13.112 76.8323 10.68V1.2H79.9523V10.56C79.9523 13.856 81.3763 15.504 84.2243 15.504C87.0563 15.504 88.4723 13.856 88.4723 10.56V1.2H91.5443V10.68C91.5443 13.112 90.8963 14.984 89.6003 16.296C88.3203 17.592 86.5203 18.24 84.2003 18.24ZM100.402 18.24C99.1058 18.24 97.8498 18.056 96.6338 17.688C95.4338 17.32 94.4818 16.832 93.7778 16.224L94.8578 13.8C95.5458 14.344 96.3858 14.792 97.3778 15.144C98.3858 15.48 99.3938 15.648 100.402 15.648C101.65 15.648 102.578 15.448 103.186 15.048C103.81 14.648 104.122 14.12 104.122 13.464C104.122 12.984 103.946 12.592 103.594 12.288C103.258 11.968 102.826 11.72 102.298 11.544C101.77 11.368 101.05 11.168 100.138 10.944C98.8578 10.64 97.8178 10.336 97.0178 10.032C96.2338 9.728 95.5538 9.256 94.9778 8.616C94.4178 7.96 94.1378 7.08 94.1378 5.976C94.1378 5.048 94.3858 4.208 94.8818 3.456C95.3938 2.688 96.1538 2.08 97.1618 1.632C98.1858 1.184 99.4338 0.959999 100.906 0.959999C101.93 0.959999 102.938 1.088 103.93 1.344C104.922 1.6 105.778 1.968 106.498 2.448L105.514 4.872C104.778 4.44 104.01 4.112 103.21 3.888C102.41 3.664 101.634 3.552 100.882 3.552C99.6498 3.552 98.7298 3.76 98.1218 4.176C97.5298 4.592 97.2338 5.144 97.2338 5.832C97.2338 6.312 97.4018 6.704 97.7378 7.008C98.0898 7.312 98.5298 7.552 99.0578 7.728C99.5858 7.904 100.306 8.104 101.218 8.328C102.466 8.616 103.49 8.92 104.29 9.24C105.09 9.544 105.77 10.016 106.33 10.656C106.906 11.296 107.194 12.16 107.194 13.248C107.194 14.176 106.938 15.016 106.426 15.768C105.93 16.52 105.17 17.12 104.146 17.568C103.122 18.016 101.874 18.24 100.402 18.24Z" fill="white"/>
</svg>
