<?xml version="1.0" standalone="no"?>
<!DOCTYPE svg PUBLIC "-//W3C//DTD SVG 20010904//EN"
 "http://www.w3.org/TR/2001/REC-SVG-20010904/DTD/svg10.dtd">
<svg version="1.0" xmlns="http://www.w3.org/2000/svg"
 width="260.000000pt" height="260.000000pt" viewBox="0 0 260.000000 260.000000"
 preserveAspectRatio="xMidYMid meet">
<metadata>
Created by potrace 1.14, written by Peter Selinger 2001-2017
</metadata>
<g transform="translate(0.000000,260.000000) scale(0.100000,-0.100000)"
fill="#000000" stroke="none">
<path d="M700 1305 l0 -735 170 0 170 0 0 188 0 187 100 100 101 100 17 -22
c9 -12 114 -141 232 -287 l215 -265 199 -1 198 0 -28 38 c-16 20 -160 203
-321 407 l-293 369 43 46 c24 25 162 172 306 328 l262 282 -189 0 -190 0 -323
-342 -324 -341 -3 341 -2 342 -170 0 -170 0 0 -735z"/>
</g>
</svg>
